<svg xmlns="http://www.w3.org/2000/svg" xml:space="preserve" width="800" height="800" viewBox="0 0 511 511">
  <path d="m492.17 309.58-17.63-10.18a223.13 223.13 0 0 0 4.46-43.9c0-14.65-1.47-29.4-4.38-43.95l17.55-10.13c5.43-3.14 9.32-8.2 10.95-14.27s.79-12.4-2.35-17.83l-48-83.14a23.35 23.35 0 0 0-14.27-10.95 23.35 23.35 0 0 0-17.83 2.35L403.1 87.72A224.88 224.88 0 0 0 327 43.7V23.5A23.53 23.53 0 0 0 303.5 0h-96A23.53 23.53 0 0 0 184 23.5v20.2a224.89 224.89 0 0 0-76 44.08l-17.67-10.2a23.35 23.35 0 0 0-17.83-2.35 23.35 23.35 0 0 0-14.27 10.95l-48 83.14c-3.14 5.43-3.97 11.77-2.35 17.83s5.51 11.13 10.95 14.27l17.63 10.18A223.28 223.28 0 0 0 32 255.5c0 14.64 1.47 29.4 4.38 43.95l-17.55 10.13a23.53 23.53 0 0 0-8.6 32.1l48 83.14a23.53 23.53 0 0 0 32.1 8.6l17.57-10.14A224.9 224.9 0 0 0 184 467.3v20.19a23.53 23.53 0 0 0 23.5 23.5h96a23.53 23.53 0 0 0 23.5-23.5v-20.2a224.9 224.9 0 0 0 76-44.08l17.67 10.2a23.53 23.53 0 0 0 32.1-8.6l48-83.14a23.53 23.53 0 0 0-8.6-32.1zm-4.4 24.6-48 83.14a8.5 8.5 0 0 1-11.6 3.11l-22.4-12.93a7.5 7.5 0 0 0-8.84 1c-22.89 21.16-50.43 37.14-79.65 46.19a7.5 7.5 0 0 0-5.28 7.16v25.65a8.5 8.5 0 0 1-8.5 8.5h-96a8.51 8.51 0 0 1-8.5-8.5v-25.64a7.5 7.5 0 0 0-5.28-7.17 209.52 209.52 0 0 1-79.75-46.14 7.5 7.5 0 0 0-8.85-.99l-22.29 12.87a8.5 8.5 0 0 1-11.6-3.11l-48-83.14a8.51 8.51 0 0 1 3.1-11.61L48.6 309.7a7.5 7.5 0 0 0 3.57-8.15A209.66 209.66 0 0 1 47 255.5c0-15.1 1.76-30.58 5.25-46.02a7.5 7.5 0 0 0-3.57-8.15l-22.35-12.9a8.45 8.45 0 0 1-3.96-5.16 8.45 8.45 0 0 1 .85-6.45l48-83.14a8.44 8.44 0 0 1 5.16-3.96 8.44 8.44 0 0 1 6.45.85l22.4 12.93a7.5 7.5 0 0 0 8.84-1c22.9-21.16 50.43-37.14 79.65-46.2a7.5 7.5 0 0 0 5.28-7.15V23.5a8.5 8.5 0 0 1 8.5-8.5h96a8.5 8.5 0 0 1 8.5 8.5v25.64a7.5 7.5 0 0 0 5.28 7.17 209.51 209.51 0 0 1 79.76 46.14 7.5 7.5 0 0 0 8.84.99l22.29-12.87a8.44 8.44 0 0 1 6.45-.85c2.2.59 4.03 2 5.16 3.96l48 83.14a8.44 8.44 0 0 1 .85 6.45c-.59 2.2-2 4.02-3.96 5.16l-22.27 12.86a7.5 7.5 0 0 0-3.57 8.14A209.72 209.72 0 0 1 464 255.5c0 15.1-1.76 30.58-5.24 46.02a7.5 7.5 0 0 0 3.56 8.15l22.35 12.9a8.51 8.51 0 0 1 3.1 11.61z"/>
  <path d="M255.5 104C171.96 104 104 171.96 104 255.5S171.96 407 255.5 407 407 339.04 407 255.5 339.04 104 255.5 104zm0 288C180.23 392 119 330.77 119 255.5S180.23 119 255.5 119 392 180.23 392 255.5 330.77 392 255.5 392z"/>
  <path d="M283.5 216h-28a7.5 7.5 0 0 0-7.5 7.5v64a7.5 7.5 0 0 0 15 0V271h20.5c15.16 0 27.5-12.34 27.5-27.5S298.66 216 283.5 216zm0 40H263v-25h20.5a12.5 12.5 0 0 1 0 25zm-68.98-35.13a7.5 7.5 0 0 0-7.02-4.87h-8a7.5 7.5 0 0 0-7.02 4.87l-24 64a7.5 7.5 0 0 0 14.04 5.26L186.7 279h33.6l4.18 11.13a7.5 7.5 0 1 0 14.04-5.26l-24-64zM192.32 264l11.18-29.8 11.18 29.8h-22.36zm135.18-48a7.5 7.5 0 0 0-7.5 7.5v64a7.5 7.5 0 0 0 15 0v-64a7.5 7.5 0 0 0-7.5-7.5zM309.15 87.3c5.2 1.66 10.4 3.59 15.42 5.73a7.47 7.47 0 0 0 9.84-3.97 7.5 7.5 0 0 0-3.96-9.84 191 191 0 0 0-16.74-6.21 7.5 7.5 0 0 0-4.56 14.29zm-208.7 252.6a7.5 7.5 0 0 0-13.17 7.19c3.11 5.7 6.56 11.31 10.24 16.67a7.5 7.5 0 1 0 12.37-8.49 177.22 177.22 0 0 1-9.44-15.37zm139.69 91.44a176.7 176.7 0 0 1-107.42-49.04 7.5 7.5 0 1 0-10.43 10.78 191.73 191.73 0 0 0 116.56 53.2l.65.03a7.5 7.5 0 0 0 .64-14.97zM363.43 97.29a7.5 7.5 0 0 0-8.47 12.38 176.73 176.73 0 0 1 70.97 99.78 7.5 7.5 0 0 0 14.49-3.9 191.73 191.73 0 0 0-77-108.26z"/>
</svg>