<svg xmlns="http://www.w3.org/2000/svg" width="149.85" height="37.98">
  <g fill-rule="evenodd">
    <path fill="#222" d="M69.32 36.8h8.94V1.15h-8.94zm31.13-7.51c5.68 0 9.85-4.87 9.85-10.33s-4.2-10.28-9.85-10.28c-5.68 0-9.88 4.82-9.88 10.28 0 5.46 4.2 10.33 9.88 10.33M100.52 0c10.7 0 19.33 8.22 19.33 18.89 0 10.72-8.7 19.1-19.42 19.1C89.69 37.98 81 29.71 81 19.02 81 8.35 89.8 0 100.52 0m20.36 26.01 8.2-1.93c.59 4.29 3.74 5.84 7.04 5.84 3.29 0 4.49-1.93 4.49-3.44 0-1.2-.7-2.4-3.1-2.87l-5.01-.96c-5.98-1.15-10.22-4.87-10.22-10.59 0-6.82 6.28-11.62 13.37-11.62 9.13 0 12.89 5.66 13.54 10.39l-8.04 2.24c-.43-2.91-2.24-5.02-5.55-5.02-2.85 0-4.21 1.88-4.21 3.32 0 1.19.56 2.55 2.7 2.96l5.2.98c6.82 1.3 10.56 5.43 10.56 10.8 0 5.82-5.07 11.43-13.77 11.43-9.1 0-14-4.73-15.2-11.53"/>
    <path fill="#3b6be3" d="M9.62 36.8H0L15.9 1.15h9.67z"/>
    <path fill="#222" d="M43.45 1.12H32.37l12.1 17.45-6.73 9.77-12.13-27.2h-9.67L31.89 36.8h10.32l7.53-11.3 7.45 11.3h10.43L55.17 18.57 67.11 1.12H56.19l-6.45 10.56z"/>
  </g>
</svg>