<svg xmlns="http://www.w3.org/2000/svg" width="800" height="800" preserveAspectRatio="xMidYMid" viewBox="0 0 256 256">
  <path fill="#563D7C" d="M0 223a33 33 0 0 0 33 33h190a33 33 0 0 0 33-33V33a33 33 0 0 0-33-33H33A33 33 0 0 0 0 33v190Z"/>
  <path fill="#FFF" d="M106.16 113.24V76.98h31.9c3.05 0 5.98.26 8.8.76 2.82.51 5.32 1.42 7.5 2.72 2.16 1.3 3.9 3.11 5.2 5.43 1.3 2.31 1.95 5.28 1.95 8.9 0 6.5-1.95 11.21-5.86 14.1-3.9 2.9-8.9 4.35-14.98 4.35h-34.51ZM72.07 50.5v155h75.12c6.94 0 13.71-.87 20.3-2.6a54.28 54.28 0 0 0 17.58-8.04 39.56 39.56 0 0 0 12.26-14c3.04-5.72 4.56-12.48 4.56-20.3 0-9.7-2.35-17.98-7.05-24.85-4.7-6.88-11.83-11.69-21.39-14.44 6.95-3.33 12.2-7.6 15.74-12.8 3.55-5.22 5.32-11.73 5.32-19.55 0-7.23-1.2-13.31-3.58-18.23a29.78 29.78 0 0 0-10.1-11.83c-4.34-2.97-9.55-5.1-15.62-6.4A96.53 96.53 0 0 0 145 50.5H72.08Zm34.09 128.52v-42.55h37.12c7.38 0 13.31 1.7 17.8 5.1 4.49 3.4 6.73 9.08 6.73 17.04 0 4.05-.69 7.38-2.06 9.99a16.39 16.39 0 0 1-5.54 6.18c-2.31 1.52-5 2.6-8.03 3.26-3.04.65-6.22.98-9.55.98h-36.47Z"/>
</svg>