<svg xmlns="http://www.w3.org/2000/svg" width="256" height="404" preserveAspectRatio="xMidYMid">
  <path fill="#1AD1A5" d="M66.4 280.75h123.2a61.6 61.6 0 1 1 0 123.2H66.4a61.6 61.6 0 0 1 0-123.2Z"/>
  <circle cx="128" cy="128" r="123.19" fill="#FFF"/>
  <path fill-opacity=".2" d="M128 0c70.7 0 128 57.3 128 128s-57.3 128-128 128S0 198.7 0 128 57.3 0 128 0Zm0 4.81C59.97 4.81 4.81 59.97 4.81 128S59.97 251.19 128 251.19 251.19 196.03 251.19 128 196.03 4.81 128 4.81Z"/>
  <circle cx="128" cy="128" r="55.19" fill="#FF9903"/>
</svg>