<svg xmlns="http://www.w3.org/2000/svg" xmlns:xlink="http://www.w3.org/1999/xlink" width="800" height="800" preserveAspectRatio="xMidYMid" viewBox="-47.5 0 351 351">
  <defs>
    <filter id="b" width="200%" height="200%" x="-50%" y="-50%" filterUnits="objectBoundingBox">
      <feGaussianBlur in="SourceAlpha" result="shadowBlurInner1" stdDeviation="17.5"/>
      <feOffset in="shadowBlurInner1" result="shadowOffsetInner1"/>
      <feComposite in="shadowOffsetInner1" in2="SourceAlpha" k2="-1" k3="1" operator="arithmetic" result="shadowInnerInner1"/>
      <feColorMatrix in="shadowInnerInner1" values="0 0 0 0 0 0 0 0 0 0 0 0 0 0 0 0 0 0 0.06 0"/>
    </filter>
    <filter id="d" width="200%" height="200%" x="-50%" y="-50%" filterUnits="objectBoundingBox">
      <feGaussianBlur in="SourceAlpha" result="shadowBlurInner1" stdDeviation="3.5"/>
      <feOffset dx="1" dy="-9" in="shadowBlurInner1" result="shadowOffsetInner1"/>
      <feComposite in="shadowOffsetInner1" in2="SourceAlpha" k2="-1" k3="1" operator="arithmetic" result="shadowInnerInner1"/>
      <feColorMatrix in="shadowInnerInner1" values="0 0 0 0 0 0 0 0 0 0 0 0 0 0 0 0 0 0 0.09 0"/>
    </filter>
    <path id="a" d="m1.25 280.73 1.6-3.13 99.36-188.52L58.06 5.61C54.4-1.3 45.07.47 43.87 8.19L1.25 280.73Z"/>
    <path id="c" d="m134.42 148.97 32.04-32.8-32.04-61.02c-3.05-5.79-10.44-6.4-13.45-.59l-17.7 34.11-.53 1.75 31.68 58.55Z"/>
  </defs>
  <path fill="#FFC24A" d="m0 283 2.12-2.97L102.52 89.5l.22-2.01L58.48 4.36c-3.7-6.97-14.15-5.2-15.37 2.6L0 283Z"/>
  <use xlink:href="#a" fill="#FFA712" fill-rule="evenodd"/>
  <use xlink:href="#a" filter="url(#b)"/>
  <path fill="#F4BD62" d="m135 150.38 32.96-33.75L135 53.7c-3.13-5.96-11.87-5.97-14.97 0l-17.6 33.59v2.86L135 150.38Z"/>
  <use xlink:href="#c" fill="#FFA50E" fill-rule="evenodd"/>
  <use xlink:href="#c" filter="url(#d)"/>
  <path fill="#F6820C" d="m0 283 .96-.97 3.5-1.42 128.48-128 1.62-4.43-32.05-61.08z"/>
  <path fill="#FDE068" d="M139.12 347.55 255.4 282.7 222.2 78.2a7.95 7.95 0 0 0-13.48-4.33L0 283l115.6 64.55a24.13 24.13 0 0 0 23.52 0"/>
  <path fill="#FCCA3F" d="M254.35 282.16 221.4 79.22c-1.03-6.35-7.56-8.98-12.1-4.43L1.29 282.6l114.34 63.9a23.94 23.94 0 0 0 23.33.02l115.4-64.36Z"/>
  <path fill="#EEAB37" d="M139.12 345.64a24.13 24.13 0 0 1-23.51 0L.93 282 0 283l115.6 64.55a24.13 24.13 0 0 0 23.52 0L255.4 282.7l-.29-1.75-115.99 64.7Z"/>
</svg>