<svg xmlns="http://www.w3.org/2000/svg" width="800" height="800" preserveAspectRatio="xMidYMid" viewBox="0 0 256 256">
  <path fill="#339AF0" d="M227.31 0H28.7A28.85 28.85 0 0 0 0 28.69V227.3A28.85 28.85 0 0 0 28.69 256H227.3a28.85 28.85 0 0 0 28.7-28.69V28.7A28.85 28.85 0 0 0 227.31 0Zm-25.94 162.46c0 2.4-2.06 3.43-4.46 4.45-9.54 4.12-19.77 7.83-30.74 7.83-15.37 0-22.51-9.54-40.97-9.54-13.31 0-27.31 4.8-38.57 9.89-.69.34-1.37.34-2.06.68v25.94c0 1.03 0 2.06-.34 2.75v.68a11.35 11.35 0 0 1-10.92 8.17c-6.45 0-11.6-5.14-11.6-11.6V76.8a19 19 0 0 1-7.48-15.03 19.1 19.1 0 0 1 19.14-19.14 19.1 19.1 0 0 1 19.14 19.14 18.2 18.2 0 0 1-7.48 15.03v10.57c1.03-.34 2.06-.68 3.08-1.37 10.58-4.46 23.2-8.17 35.15-8.17 12.97 0 23.2 3.43 34.8 7.83 2.4 1.03 4.8 1.37 7.48 1.37 12.97 0 27.32-9.2 30.75-9.2 2.74 0 5.14 2.06 5.14 4.46v80.17h-.06Z"/>
</svg>