<svg xmlns="http://www.w3.org/2000/svg" width="800" height="800" preserveAspectRatio="xMidYMid" viewBox="0 -25 256 256">
  <path fill="#EA4335" d="m170.25 56.82 22.25-22.25 1.5-9.37C153.44-11.68 88.98-7.5 52.42 33.92a102.86 102.86 0 0 0-21.7 40.65l7.97-1.12 44.5-7.34 3.44-3.51c19.8-21.75 53.27-24.67 76.13-6.17l7.5.39Z"/>
  <path fill="#4285F4" d="M224.2 73.92A100.25 100.25 0 0 0 194 25.2l-31.23 31.23a55.52 55.52 0 0 1 20.37 44.04V106a27.8 27.8 0 0 1 27.8 27.8c0 15.35-12.44 27.48-27.8 27.48h-55.67l-5.46 5.93v33.34l5.46 5.24h55.67c39.93.3 72.56-31.5 72.87-71.43a72.3 72.3 0 0 0-31.8-60.45"/>
  <path fill="#34A853" d="M71.87 205.8h55.6v-44.51h-55.6c-3.96 0-7.8-.85-11.4-2.5l-7.89 2.42-22.4 22.25-1.96 7.58a72.14 72.14 0 0 0 43.65 14.76"/>
  <path fill="#FBBC05" d="M71.87 61.43a72.3 72.3 0 0 0-43.65 129.6l32.25-32.24a27.8 27.8 0 1 1 36.78-36.77l32.24-32.25a72.22 72.22 0 0 0-57.62-28.34"/>
</svg>