<svg xmlns="http://www.w3.org/2000/svg" width="512" height="512">
  <path fill="#154F92" d="M256 48c114.95 0 208 93.03 208 208 0 114.95-93.03 208-208 208-114.95 0-208-93.03-208-208 0-114.95 93.03-208 208-208m0-40C119.03 8 8 119.03 8 256s111.03 248 248 248 248-111.03 248-248S392.97 8 256 8zm0 56C149.96 64 64 149.96 64 256s85.96 192 192 192 192-85.96 192-192S362.04 64 256 64zm0 44a36 36 0 1 1 0 72 36 36 0 0 1 0-72zm117.74 98.02c-28.71 6.78-55.51 12.75-82.14 15.81.85 101.02 12.3 123.05 25.04 155.62a18 18 0 1 1-33.53 13.1c-8.71-22.3-17.1-40.64-22.27-78.55h-9.68c-5.17 37.85-13.54 56.2-22.26 78.55a18 18 0 1 1-33.54-13.1c12.72-32.54 24.19-54.54 25.04-155.62-26.63-3.06-53.43-9.03-82.14-15.8a16 16 0 1 1 7.35-31.15c96.69 22.83 124.29 22.78 220.78 0a16 16 0 1 1 7.35 31.14z"/>
</svg>