<svg xmlns="http://www.w3.org/2000/svg" width="800" height="800" viewBox="0 -198 512 512">
  <g fill="none" fill-rule="evenodd">
    <path fill="#1A1918" d="m489.72 8.65 21.42.11-43.08 58.37c-1.05 1.42-2.66 2.96-3.47 4.86-2.06 4.79-4.17 15.29-4.17 15.29l-19.6.1s3.05-10.95 2.92-16.78c-.1-5.1-2.7-10.18-4.16-15.29-1.48-5.16-3.48-15.28-3.48-15.28h20.15l2.78 11.12 30.69-42.5"/>
    <path fill="#1A1918" d="M449.16 20.03c3.95 2.38 6.38 15.53 6.38 15.53s-20.69.3-31.94.3h-9.73l-11.81 51.42h-18.07s11.24-55.88 13.9-66c.86-3.29 5.9-2.73 14.39-2.73h13.57c8.76 0 19-1.11 23.3 1.48m-84.09 25.04s.56-3.3-1.91-7.13c-2.11-3.25-4.06-4.01-9.62-4.18-15.7-.5-15.4 11.13-15.4 11.13l26.93.18Zm17.02-13.32c2.3 8.3-2.08 27.79-2.08 27.79s-22.9-.38-35.44 0c-3.9.12-8.56-.42-9.72 1.39-1.64 2.54.6 6.45 2.48 8.1 2.18 1.91 6.42 2.13 7.94 2.32 10.18 1.3 31.48.33 31.48.33l-3.69 16.34s-30.1 1.51-45.16-2.08c-2.97-.7-5.76-2.14-7.64-4.17-.52-.55-.96-1.31-1.45-1.96a18.24 18.24 0 0 1-2.03-3.6c-3.44-9.16.4-26.72 4.17-36.12.44-1.1.99-2.48 1.57-3.65.72-1.47 1.33-3.12 1.9-4 .4-.6.87-1 1.28-1.56.46-.67 1-1.33 1.5-1.91 1.4-1.61 2.97-2.75 4.87-4.17 6.27-4.7 17.62-8.34 31.26-6.95 5.14.53 12.9 2.36 16.68 7.65 1.01 1.4 1.51 4.2 2.08 6.25ZM299.23 18.5l17.51-.11s-9.76 46.3-14.73 68.89h-20.15c-14.08 0-26.63 1.74-31.96-8.34-5.18-9.8-.24-25.89 2.08-36.83 1.64-7.74 5.1-23.56 5.1-23.56l18.14-.16s-5.12 24.63-7.26 36.92c-.76 4.41-2.34 8.56-.7 11.82 1.57 3.1 3.76 3.32 10.43 3.47 2.11.05 9.03 0 9.03 0l12.5-52.1m-81.98 33.34c1.84-6.52 4.51-13.58 4.17-19.45-.37-6.28-5.63-12-9.03-13.2-10.23-3.62-19.81 1.43-23.62 5.55-4.93 5.34-6.6 11.57-8.34 20.15-1.3 6.37-2.36 13.1 0 18.07 4.18 8.78 17.22 6.86 31.27 6.95 2.08-5.59 3.8-11.86 5.55-18.07Zm24.32-25.7c2 14.54-5.67 30.6-10.96 44.56 5.39.5 10.11-.07 10.45.33.36.52-3.6 16.67-5 16.71-4.27.11-18.45.23-24.36.23-19.3 0-37.35 1.26-46.55-8.34-3.74-3.9-6.33-10.58-6.95-15.28-1.05-7.85.26-16.5 2.08-23.63 1.65-6.43 3.76-12.5 6.95-18.06C175.32 8.5 189.43-2 213.08.43c4.58.47 11.17 2.48 15.28 4.86.29.17 1.28.96 1.5 1.1 5.57 3.54 10.63 11.98 11.7 19.74Zm-85.36-7.57c-1.17 5.32-2.34 11.34-3.57 16.6h-19.46c1.51-5.83 2.67-11.61 4.17-16.68 6.23 0 12.02.08 18.85.08m-23.71 21.46h18.76c-2.45 13.58-7.3 35.48-11.12 50.72-2.38 9.54-3.97 16.5-10.42 21.54-.58.45-.9.23-1.39.7-1.19 1.13-6.68 2.44-9.73 2.77-4.94.54-10.54.07-16.61-.05 1.59-5.82 3.39-12.8 4.8-18.01 14.82 1.79 15.2-12.22 18.07-25.71 1.66-7.8 6.69-28.83 7.64-31.96"/>
    <g fill="#21609B">
      <path d="m88.7 75.46-.4 1.05C81.47 89.85 69.33 98.03 52 98.39c-8.1.17-15.8-1.9-20.84-4.17A53.84 53.84 0 0 1 6.15 70.6C-1.02 56.73-2.31 37.42 12.59 23c.23 0-1.8 3.13-1.58 3.13l-.4 1.34c-10.74 33.6 22.33 62.4 54.48 59.11 7.72-.8 17.57-5.02 23.62-11.12"/>
      <path d="M69.25 61.57c8.1.05 16.54-3.73 21.54-9.03-4.37 11.1-17.05 18.25-34.04 15.98-14.23-1.9-27.79-16.23-29.18-30.58-1.02-10.44 2.62-16.67 8.61-24.23-2.08 3.95-2.86 7-3.05 8.95-2.28 22.59 18.04 38.79 36.12 38.9"/>
      <path d="M89.98 33.51c-1.26 2.89-8.5 8.33-11.7 9.01-12.65 2.7-20.76-3.3-25-10.13a30.46 30.46 0 0 1-2.01-4.52c-1.65-5.6-.9-14.07 4.02-18.45-1.48 4.17-1.7 9-.92 12.16.47 1.9 1.91 5.22 3.35 7.31 2.62 3.8 4.28 4.73 7.64 6.76 1.52.9 3.14 1.64 3.85 1.84 3.19.93 9.92 3.4 20.77-3.98"/>
    </g>
  </g>
</svg>