<svg xmlns="http://www.w3.org/2000/svg" width="800" height="800" viewBox="0 0 32 32">
  <defs>
    <linearGradient id="a" x1="-3.61" x2="-3.61" y1="-492.69" y2="-480.27" gradientTransform="translate(19.71 502.9)" gradientUnits="userSpaceOnUse">
      <stop offset=".15" stop-color="#2a4f84"/>
      <stop offset=".39" stop-color="#294e82"/>
      <stop offset="1" stop-color="#172e4e"/>
    </linearGradient>
  </defs>
  <path fill="url(#a)" d="M28.56 20.23a2.4 2.4 0 0 1-2.4 2.39H6.04a2.4 2.4 0 0 1-2.4-2.4V12.6a2.4 2.4 0 0 1 2.4-2.4h20.13a2.4 2.4 0 0 1 2.39 2.4Z"/>
  <path fill="#f6f6f6" d="M24.35 16.25a1.97 1.97 0 0 1 1.58 1.9 1.69 1.69 0 0 1-.66 1.4 2.93 2.93 0 0 1-1.86.55 4.56 4.56 0 0 1-2.24-.62 1.99 1.99 0 0 1 .16-.67 1.83 1.83 0 0 1 .35-.57 3.7 3.7 0 0 0 1.65.49.96.96 0 0 0 .51-.11.34.34 0 0 0 .18-.3q0-.36-.55-.53l-.65-.25q-1.48-.54-1.48-1.76a1.75 1.75 0 0 1 .62-1.42 2.59 2.59 0 0 1 1.68-.64 5.1 5.1 0 0 1 1.15.14 4.55 4.55 0 0 1 1.03.47 1.67 1.67 0 0 1-.13.73 1.22 1.22 0 0 1-.38.55 4.26 4.26 0 0 0-1.66-.44.54.54 0 0 0-.36.1.34.34 0 0 0-.13.27q0 .29.46.45l.73.26Zm-5.25 0a1.97 1.97 0 0 1 1.58 1.9 1.7 1.7 0 0 1-.66 1.4 2.94 2.94 0 0 1-1.86.55 4.56 4.56 0 0 1-2.24-.62 1.98 1.98 0 0 1 .16-.67 1.82 1.82 0 0 1 .35-.57 3.7 3.7 0 0 0 1.65.49.96.96 0 0 0 .51-.11.34.34 0 0 0 .18-.3q0-.36-.55-.53l-.65-.25q-1.48-.54-1.48-1.76a1.75 1.75 0 0 1 .62-1.42 2.58 2.58 0 0 1 1.68-.64 5.09 5.09 0 0 1 1.15.14 4.55 4.55 0 0 1 1.03.47 1.67 1.67 0 0 1-.13.73 1.22 1.22 0 0 1-.38.55 4.26 4.26 0 0 0-1.66-.44.54.54 0 0 0-.36.1.34.34 0 0 0-.13.27q0 .29.45.45l.74.26Zm-3.84.08a2.82 2.82 0 0 0-.17-1 2.24 2.24 0 0 0-.49-.78 2.28 2.28 0 0 0-.78-.52 2.74 2.74 0 0 0-1.02-.32 2.8 2.8 0 0 0-1.18.37 2.26 2.26 0 0 0-.83.64 2.77 2.77 0 0 0-.49.97 4.4 4.4 0 0 0-.16 1.22 5.68 5.68 0 0 0 .13 1.25 2.63 2.63 0 0 0 .45 1 2.1 2.1 0 0 0 .81.66 2.94 2.94 0 0 0 1.25.28 3.95 3.95 0 0 0 2.33-.71 1.86 1.86 0 0 0-.49-1.08 6.19 6.19 0 0 1-.85.26 3.2 3.2 0 0 1-.66.08 1.02 1.02 0 0 1-.81-.3 1.19 1.19 0 0 1-.28-.76h3.09a4.45 4.45 0 0 0 .15-1.26Zm-3.24.08a2.43 2.43 0 0 1 .21-1 .63.63 0 0 1 .56-.26.66.66 0 0 1 .58.28 1.75 1.75 0 0 1 .2.86v.13h-1.55Z"/>
  <path fill="#f6f6f6" stroke="#404040" stroke-miterlimit="10" stroke-width=".25" d="M29.18 17.2a1.6 1.6 0 0 0-.53 1.26v2.06a1.81 1.81 0 0 1-.68 1.55 2.8 2.8 0 0 1-1.66.55h-.37V21.6a1.24 1.24 0 0 0 .6-.33 1.37 1.37 0 0 0 .41-1.05v-1.65a2.54 2.54 0 0 1 .26-1.33 2.5 2.5 0 0 1 1.2-.83 2.53 2.53 0 0 1-1.32-1.18 2.96 2.96 0 0 1-.14-1.17v-1.52a1.46 1.46 0 0 0-.36-1.05 1.15 1.15 0 0 0-.65-.32v-.96h.93a1.68 1.68 0 0 1 1.02.45 2 2 0 0 1 .67 1 2.33 2.33 0 0 1 .09.7v1.76a1.85 1.85 0 0 0 .5 1.39 2.11 2.11 0 0 0 .85.47v.8a1.94 1.94 0 0 0-.82.42Zm-23.58-7h-.34a1.67 1.67 0 0 0-1.02.45 1.71 1.71 0 0 0-.68 1 3.53 3.53 0 0 0-.03.7v1.76a1.87 1.87 0 0 1-.55 1.39 2.85 2.85 0 0 1-.98.48v.79a2.55 2.55 0 0 1 .95.43 1.64 1.64 0 0 1 .57 1.26v2.05a1.78 1.78 0 0 0 .64 1.56 2.8 2.8 0 0 0 1.65.55h.43v-1.03a1.47 1.47 0 0 1-.65-.33 1.35 1.35 0 0 1-.37-1.05v-1.65a2.52 2.52 0 0 0-.3-1.33 2.5 2.5 0 0 0-1.2-.83 2.53 2.53 0 0 0 1.32-1.18 2.86 2.86 0 0 0 .18-1.17v-1.52a1.46 1.46 0 0 1 .32-1.05 1.31 1.31 0 0 1 .57-.27h.43v-1H5.6Z"/>
  <path fill="#f6f6f6" d="M9.54 18.53h-.32c-.35 0-.48-.18-.48-.55v-6.76a1.26 1.26 0 0 0-.27-.86c-.15-.16-.41-.16-.78-.16h-.81v8.1a1.88 1.88 0 0 0 .35 1.25 1.44 1.44 0 0 0 1.15.39 7.86 7.86 0 0 0 1.27-.12 2.23 2.23 0 0 0 .03-.5 2.28 2.28 0 0 0-.14-.79Z"/>
</svg>