<svg xmlns="http://www.w3.org/2000/svg" width="800" height="800" viewBox="-18.46 -22.75 191.15 191.15">
  <path fill="none" d="M-18.46 6.58H172.7v132.49H-18.46V6.58z"/>
  <path fill="#5d87a1" d="M40.05 113.58h-5.17c-.18-8.73-.69-16.94-1.51-24.64h-.05l-7.88 24.64H21.5l-7.83-24.64h-.04c-.58 7.39-.95 15.6-1.1 24.64H7.8c.3-10.99 1.07-21.3 2.29-30.92h6.41l7.47 22.72h.04l7.51-22.72h6.14a337.18 337.18 0 0 1 2.38 30.92m22.45-22.8c-2.11 11.42-4.89 19.73-8.34 24.92-2.69 4-5.63 5.99-8.84 5.99a8.7 8.7 0 0 1-3.16-.77v-2.76c.61.09 1.33.14 2.15.14 1.5 0 2.7-.41 3.62-1.24a4.5 4.5 0 0 0 1.65-3.39c0-.85-.43-2.6-1.28-5.26l-5.68-17.64h5.08l4.08 13.19c.91 3 1.3 5.09 1.14 6.28a86.16 86.16 0 0 0 4.68-19.47h4.9z"/>
  <path fill="#f8981d" d="M131.38 113.58h-14.7V82.66h4.95v27.12h9.75v3.8zm-18.55.75-5.68-2.8c.5-.42.99-.87 1.42-1.39 2.42-2.83 3.62-7.03 3.62-12.59 0-10.23-4.01-15.35-12.04-15.35-3.94 0-7.01 1.3-9.21 3.9-2.42 2.84-3.62 7.02-3.62 12.55 0 5.43 1.07 9.42 3.2 11.95 1.96 2.3 4.9 3.44 8.85 3.44 1.47 0 2.82-.18 4.05-.54l7.4 4.3 2.01-3.47zm-18.4-6.93c-1.26-2.02-1.89-5.25-1.89-9.71 0-7.79 2.37-11.68 7.1-11.68 2.48 0 4.3.93 5.45 2.79 1.25 2.02 1.88 5.22 1.88 9.62 0 7.85-2.37 11.77-7.1 11.77-2.47 0-4.29-.93-5.45-2.8m-9.25-2.38a8.2 8.2 0 0 1-2.89 6.46c-1.92 1.68-4.5 2.52-7.74 2.52a15.5 15.5 0 0 1-8.79-2.89l1.33-2.65c2.44 1.22 4.65 1.83 6.64 1.83 1.86 0 3.32-.41 4.37-1.23a4.2 4.2 0 0 0 1.69-3.44c0-1.83-1.28-3.4-3.63-4.72a520.1 520.1 0 0 1-6.5-3.68c-2.36-1.7-3.53-3.55-3.53-6.57a7.7 7.7 0 0 1 2.63-6.07c1.76-1.55 4.03-2.32 6.8-2.32 2.87 0 5.48.77 7.83 2.3L82.2 87.2c-2-.85-4-1.28-5.95-1.28-1.58 0-2.8.38-3.66 1.14a3.83 3.83 0 0 0-1.4 2.94c0 1.83 1.31 3.42 3.73 4.76 2.2 1.19 6.63 3.72 6.63 3.72 2.41 1.7 3.62 3.53 3.62 6.53"/>
  <path fill="#5d87a1" d="M137.59 72.3c-2.99-.07-5.3.23-7.25 1.06-.56.22-1.45.22-1.53.93.3.3.34.78.6 1.2a8.68 8.68 0 0 0 1.94 2.27c.79.6 1.57 1.2 2.4 1.72 1.45.9 3.1 1.42 4.51 2.32.83.52 1.65 1.2 2.47 1.75.41.3.67.79 1.2.97v-.11c-.27-.34-.34-.82-.6-1.2l-1.12-1.08a17.78 17.78 0 0 0-3.89-3.77c-1.2-.82-3.8-1.94-4.3-3.32l-.07-.08c.82-.07 1.8-.37 2.58-.6 1.27-.34 2.43-.26 3.73-.6.6-.14 1.2-.33 1.8-.52v-.33c-.68-.68-1.16-1.57-1.87-2.2-1.9-1.65-4-3.26-6.16-4.6-1.16-.75-2.66-1.23-3.9-1.87-.44-.23-1.19-.34-1.45-.71-.67-.82-1.04-1.9-1.53-2.88a93.51 93.51 0 0 1-3.06-6.5c-.68-1.46-1.09-2.91-1.9-4.26-3.86-6.35-8.04-10.2-14.46-13.97-1.39-.78-3.03-1.12-4.78-1.53l-2.8-.15c-.6-.26-1.2-.97-1.73-1.3-2.13-1.35-7.62-4.26-9.18-.42-1.01 2.43 1.49 4.82 2.35 6.06.63.85 1.46 1.83 1.9 2.8.26.63.34 1.3.6 1.98.6 1.64 1.16 3.47 1.94 5 .41.79.86 1.6 1.39 2.32.3.41.82.6.93 1.27-.52.74-.56 1.86-.86 2.8-1.34 4.22-.82 9.45 1.09 12.55.6.94 2.01 3 3.92 2.2 1.68-.67 1.3-2.8 1.8-4.67.1-.45.03-.74.25-1.04v.07c.52 1.05 1.05 2.06 1.53 3.1a21.3 21.3 0 0 0 4.86 5c.9.68 1.6 1.84 2.73 2.25v-.11h-.08c-.22-.34-.56-.48-.85-.74-.68-.68-1.42-1.5-1.95-2.25a48.12 48.12 0 0 1-4.18-6.8c-.6-1.16-1.12-2.43-1.6-3.58-.23-.45-.23-1.12-.6-1.35-.57.82-1.39 1.53-1.8 2.54-.7 1.6-.78 3.59-1.05 5.64l-.14.08c-1.2-.3-1.6-1.53-2.06-2.58-1.12-2.65-1.3-6.91-.34-9.97.26-.79 1.39-3.25.94-4-.22-.71-.97-1.12-1.38-1.68-.48-.71-1.01-1.6-1.35-2.4-.9-2.09-1.35-4.4-2.31-6.5-.45-.97-1.23-1.97-1.87-2.87-.71-1-1.5-1.72-2.06-2.91-.18-.42-.44-1.09-.14-1.53.07-.3.22-.42.52-.5.48-.4 1.87.12 2.35.34 1.39.56 2.54 1.09 3.7 1.87.52.38 1.08 1.09 1.75 1.27h.79c1.2.26 2.54.08 3.66.41 1.98.64 3.77 1.57 5.38 2.58 4.9 3.1 8.93 7.51 11.65 12.78.45.86.64 1.64 1.05 2.54.79 1.83 1.76 3.7 2.54 5.49.78 1.75 1.53 3.55 2.65 5 .56.79 2.8 1.2 3.82 1.61.74.34 1.9.63 2.57 1.04a63.4 63.4 0 0 1 3.73 2.55c.6.45 2.47 1.38 2.58 2.13m-38.1-32.47a5.82 5.82 0 0 0-1.54.2v.07h.08c.3.6.82 1 1.2 1.53.3.6.56 1.2.85 1.79l.07-.07c.53-.38.8-.97.8-1.87-.23-.27-.27-.52-.46-.79-.22-.37-.7-.56-1-.86"/>
  <path fill="#f8981d" d="M141.15 113.58h.77v-3.79h-1.16l-.95 2.58-1.03-2.58h-1.11v3.79h.73v-2.88h.04l1.08 2.88h.55l1.08-2.88v2.88zm-6.24 0h.82v-3.15h1.07v-.64h-3v.64h1.11v3.15z"/>
</svg>