<svg xmlns="http://www.w3.org/2000/svg" width="800" height="800" preserveAspectRatio="xMidYMid" viewBox="0 -101.5 512 512">
  <path d="M120.81 80.56h96.57v7.68h-87.72V146h82.49v7.68h-82.49v63.42h88.72v7.68h-97.57V80.56Zm105.22 0h10.26l45.47 63.42 46.47-63.42L391.44 0 287.6 150.65l53.52 74.13h-10.67l-48.68-67.47-48.9 67.47h-10.45l53.91-74.13-50.3-70.09Zm118.9 7.68v-7.68h110.05v7.68h-50.7v136.54h-8.85V88.24h-50.5ZM0 80.56h11.07l152.58 228.32-63.06-84.1L9.25 91.47l-.4 133.3H0V80.58ZM454.08 214.8c-1.8 0-3.16-1.4-3.16-3.22a3.13 3.13 0 0 1 3.16-3.2c1.83 0 3.17 1.4 3.17 3.2a3.12 3.12 0 0 1-3.17 3.22Zm8.7-8.46h4.74c.06 2.57 1.94 4.3 4.7 4.3 3.07 0 4.81-1.86 4.81-5.33v-21.99h4.83v22.01c0 6.25-3.62 9.85-9.6 9.85-5.62 0-9.48-3.49-9.48-8.84Zm25.39-.28h4.78c.4 2.96 3.29 4.83 7.45 4.83 3.87 0 6.71-2 6.71-4.76 0-2.37-1.8-3.8-5.92-4.77l-4-.97c-5.62-1.31-8.18-4.03-8.18-8.6 0-5.54 4.52-9.22 11.3-9.22 6.3 0 10.91 3.68 11.2 8.92h-4.7c-.45-2.87-2.95-4.66-6.57-4.66-3.8 0-6.35 1.84-6.35 4.64 0 2.22 1.64 3.5 5.69 4.44l3.42.84c6.37 1.49 9 4.08 9 8.75 0 5.95-4.6 9.68-11.97 9.68-6.89 0-11.52-3.55-11.86-9.12Z"/>
</svg>