<svg xmlns="http://www.w3.org/2000/svg" xmlns:xlink="http://www.w3.org/1999/xlink" width="800" height="800" preserveAspectRatio="xMidYMid" viewBox="0 -99 512 512">
  <defs>
    <linearGradient id="b" x1="68.19%" x2="27.82%" y1="17.49%" y2="89.76%">
      <stop offset="0%" stop-color="#41873F"/>
      <stop offset="32.88%" stop-color="#418B3D"/>
      <stop offset="63.52%" stop-color="#419637"/>
      <stop offset="93.19%" stop-color="#3FA92D"/>
      <stop offset="100%" stop-color="#3FAE2A"/>
    </linearGradient>
    <linearGradient id="d" x1="43.28%" x2="159.25%" y1="55.17%" y2="-18.31%">
      <stop offset="13.76%" stop-color="#41873F"/>
      <stop offset="40.32%" stop-color="#54A044"/>
      <stop offset="71.36%" stop-color="#66B848"/>
      <stop offset="90.81%" stop-color="#6CC04A"/>
    </linearGradient>
    <linearGradient id="e" x1="-4413.77%" x2="5327.93%" y1="13.43%" y2="13.43%">
      <stop offset="9.19%" stop-color="#6CC04A"/>
      <stop offset="28.64%" stop-color="#66B848"/>
      <stop offset="59.68%" stop-color="#54A044"/>
      <stop offset="86.24%" stop-color="#41873F"/>
    </linearGradient>
    <linearGradient id="f" x1="-4.39%" x2="101.5%" y1="50%" y2="50%">
      <stop offset="9.19%" stop-color="#6CC04A"/>
      <stop offset="28.64%" stop-color="#66B848"/>
      <stop offset="59.68%" stop-color="#54A044"/>
      <stop offset="86.24%" stop-color="#41873F"/>
    </linearGradient>
    <linearGradient id="g" x1="-9713.77%" x2="27.93%" y1="36.21%" y2="36.21%">
      <stop offset="9.19%" stop-color="#6CC04A"/>
      <stop offset="28.64%" stop-color="#66B848"/>
      <stop offset="59.68%" stop-color="#54A044"/>
      <stop offset="86.24%" stop-color="#41873F"/>
    </linearGradient>
    <linearGradient id="h" x1="-103.86%" x2="100.8%" y1="50.28%" y2="50.28%">
      <stop offset="9.19%" stop-color="#6CC04A"/>
      <stop offset="28.64%" stop-color="#66B848"/>
      <stop offset="59.68%" stop-color="#54A044"/>
      <stop offset="86.24%" stop-color="#41873F"/>
    </linearGradient>
    <linearGradient id="i" x1="130.61%" x2="4.39%" y1="-211.07%" y2="201.61%">
      <stop offset="0%" stop-color="#41873F"/>
      <stop offset="32.88%" stop-color="#418B3D"/>
      <stop offset="63.52%" stop-color="#419637"/>
      <stop offset="93.19%" stop-color="#3FA92D"/>
      <stop offset="100%" stop-color="#3FAE2A"/>
    </linearGradient>
    <path id="a" d="M57.9 1.85a5.96 5.96 0 0 0-5.9 0L3.36 29.93a5.77 5.77 0 0 0-2.89 5.09V91.3a6.02 6.02 0 0 0 2.9 5.09L52 124.47a5.96 5.96 0 0 0 5.9 0l48.65-28.08a5.77 5.77 0 0 0 2.89-5.09V35.02a6.02 6.02 0 0 0-2.89-5.09L57.9 1.85Z"/>
  </defs>
  <g fill="none">
    <path fill="#539E43" d="M253.11 313.1c-1.73 0-3.35-.47-4.85-1.28l-15.38-9.13c-2.3-1.27-1.15-1.73-.46-1.96a28 28 0 0 0 6.94-3.12c.34-.23.8-.12 1.15.11l11.8 7.05c.45.23 1.03.23 1.38 0l46.11-26.7c.47-.23.7-.69.7-1.27v-53.28c0-.57-.23-1.04-.7-1.27l-46.11-26.58c-.46-.23-1.04-.23-1.39 0l-46.11 26.58c-.47.23-.7.81-.7 1.27v53.28c0 .47.23 1.04.7 1.27l12.6 7.29c6.81 3.46 11.09-.58 11.09-4.63v-52.58c0-.7.58-1.4 1.39-1.4h5.9c.68 0 1.38.59 1.38 1.4v52.58c0 9.13-4.97 14.45-13.64 14.45-2.66 0-4.74 0-10.63-2.89l-12.14-6.93a9.75 9.75 0 0 1-4.85-8.44v-53.28c0-3.47 1.85-6.7 4.85-8.44l46.12-26.7a10.32 10.32 0 0 1 9.7 0l46.12 26.7a9.75 9.75 0 0 1 4.85 8.44v53.28c0 3.47-1.85 6.7-4.85 8.44l-46.12 26.7c-1.5.69-3.23 1.03-4.85 1.03Zm14.22-36.64c-20.23 0-24.39-9.25-24.39-17.1 0-.7.58-1.4 1.39-1.4h6c.7 0 1.28.47 1.28 1.16.92 6.13 3.58 9.13 15.83 9.13 9.71 0 13.87-2.2 13.87-7.4 0-3-1.15-5.2-16.3-6.7-12.6-1.27-20.45-4.04-20.45-14.1 0-9.36 7.86-14.9 21.03-14.9 14.8 0 22.08 5.08 23 16.17 0 .35-.11.7-.34 1.04-.24.23-.58.46-.93.46h-6c-.59 0-1.16-.46-1.28-1.04-1.39-6.35-4.97-8.43-14.45-8.43-10.63 0-11.9 3.7-11.9 6.47 0 3.35 1.5 4.4 15.83 6.24 14.22 1.85 20.92 4.5 20.92 14.45-.11 10.17-8.44 15.95-23.11 15.95Z"/>
    <path fill="#333" d="M110.03 104.71a5.88 5.88 0 0 0-3-5.08l-49.01-28.2a6.87 6.87 0 0 0-2.66-.81h-.46a5.5 5.5 0 0 0-2.66.8l-49 28.2a5.9 5.9 0 0 0-3 5.1l.1 75.8c0 1.05.58 2.09 1.5 2.55.93.58 2.09.58 2.9 0l29.12-16.64c1.85-1.04 3-3 3-5.09v-35.48a5.88 5.88 0 0 1 3.01-5.08l12.37-7.17a5.6 5.6 0 0 1 3-.8c1.05 0 2.09.22 2.9.8l12.36 7.17c1.85 1.04 3 3 3 5.08v35.48a5.88 5.88 0 0 0 3.01 5.09l29.13 16.64a2.8 2.8 0 0 0 3 0c.93-.46 1.5-1.5 1.5-2.54l-.11-75.82ZM345.57.35a3.18 3.18 0 0 0-2.89 0 3 3 0 0 0-1.5 2.54V78c0 .7-.35 1.39-1.04 1.85a2.2 2.2 0 0 1-2.08 0l-12.25-7.05a5.96 5.96 0 0 0-5.9 0l-49 28.32c-1.85 1.04-3 3-3 5.08v56.52a5.88 5.88 0 0 0 3 5.09l49 28.31a5.96 5.96 0 0 0 5.9 0l49-28.31c1.85-1.04 3-3 3-5.09V21.84c0-2.2-1.15-4.16-3-5.2L345.57.34Zm-4.5 143.77c0 .58-.24 1.04-.7 1.27l-16.76 9.71c-.46.23-1.04.23-1.5 0l-16.76-9.7c-.46-.24-.7-.81-.7-1.28v-19.41c0-.58.24-1.04.7-1.28l16.76-9.7a1.71 1.71 0 0 1 1.5 0l16.76 9.7c.46.24.7.81.7 1.28v19.41Zm167.58-19.88a5.77 5.77 0 0 0 2.89-5.08V105.4a6.02 6.02 0 0 0-2.9-5.08L460 72.12a5.96 5.96 0 0 0-5.9 0l-49 28.32c-1.85 1.04-3 3-3 5.08v56.52a5.88 5.88 0 0 0 3 5.08l48.66 27.74a5.74 5.74 0 0 0 5.78 0L489 178.45c.93-.46 1.5-1.5 1.5-2.54s-.57-2.08-1.5-2.55l-49.23-28.31a3.01 3.01 0 0 1-1.5-2.55v-17.68c0-1.04.57-2.08 1.5-2.54l15.37-8.78a2.82 2.82 0 0 1 3 0l15.37 8.78a3 3 0 0 1 1.5 2.54v13.87c0 1.04.58 2.08 1.5 2.54.93.58 2.09.58 3.01 0l29.13-16.99Z"/>
    <path fill="#539E43" d="M456.3 121.59a1 1 0 0 1 1.15 0l9.36 5.43c.35.23.58.58.58 1.04v10.86c0 .46-.23.81-.58 1.04l-9.36 5.43c-.35.24-.81.24-1.16 0l-9.36-5.43a1.21 1.21 0 0 1-.58-1.04v-10.86c0-.46.23-.81.58-1.04l9.36-5.43Z"/>
    <g transform="translate(134.07 70.5)">
      <mask id="c" fill="#fff">
        <use xlink:href="#a"/>
      </mask>
      <use xlink:href="#a" fill="url(#b)"/>
      <g mask="url(#c)">
        <path d="M51.9 1.85 3.11 29.93A6 6 0 0 0 0 35.02V91.3c0 1.4.58 2.66 1.5 3.7L56.3 1.16a6.6 6.6 0 0 0-4.4.69Zm4.73 123.2c.46-.11.93-.34 1.39-.58l48.77-28.08c1.85-1.04 3-3 3-5.09V35.02c0-1.5-.69-3-1.73-4.05l-51.43 94.08Z"/>
        <path fill="url(#d)" d="M106.68 29.93 57.78 1.85a8.02 8.02 0 0 0-1.5-.58L1.5 95.12a6.08 6.08 0 0 0 1.62 1.39l48.89 28.08c1.39.81 3 1.04 4.5.58l51.44-94.08c-.35-.46-.81-.8-1.27-1.16Z"/>
      </g>
      <g mask="url(#c)">
        <path d="M109.8 91.3V35.02a6 6 0 0 0-3.12-5.09L57.78 1.85a5.1 5.1 0 0 0-1.84-.7l53.51 91.43c.23-.35.35-.81.35-1.28ZM3.12 29.93A6 6 0 0 0 0 35.02V91.3c0 2.09 1.39 4.05 3.12 5.09l48.89 28.08c1.15.7 2.43.93 3.81.7L3.47 29.82l-.35.11Z"/>
        <path fill="url(#e)" fill-rule="evenodd" d="m50.4.8-.7.36h.92L50.4.8Z" transform="translate(0 -9.25)"/>
        <path fill="url(#f)" fill-rule="evenodd" d="M106.8 105.64a6.57 6.57 0 0 0 2.88-3.7L56.05 10.4a5.87 5.87 0 0 0-4.16.7L3.35 39.06l52.36 95.47c.7-.12 1.5-.35 2.2-.7l48.88-28.2Z" transform="translate(0 -9.25)"/>
        <path fill="url(#g)" fill-rule="evenodd" d="m111.3 104.71-.35-.58v.81l.35-.23Z" transform="translate(0 -9.25)"/>
        <path fill="url(#h)" fill-rule="evenodd" d="m106.8 105.64-48.78 28.08c-.7.35-1.39.58-2.2.7l.93 1.73 54.09-31.32v-.7l-1.39-2.3a5.37 5.37 0 0 1-2.66 3.8Z" transform="translate(0 -9.25)"/>
        <path fill="url(#i)" fill-rule="evenodd" d="m106.8 105.64-48.78 28.08c-.7.35-1.39.58-2.2.7l.93 1.73 54.09-31.32v-.7l-1.39-2.3a5.37 5.37 0 0 1-2.66 3.8Z" transform="translate(0 -9.25)"/>
      </g>
    </g>
  </g>
</svg>