<svg xmlns="http://www.w3.org/2000/svg" width="800" height="800" viewBox="0 0 32 32">
  <path d="M20.8 22.61c-2.97.05-5.8.58-8.44 1.52l.18-.06c-3.59 1.22-3.69 1.69-6.94 1.3a16.57 16.57 0 0 1-4.7-1.43l.1.04a12.63 12.63 0 0 0 6.08 2.65h.06a17.2 17.2 0 0 0 6.75-1.8l-.1.04a22.73 22.73 0 0 1 7.83-1.22h-.02c3.44.22 6.65.77 9.73 1.62l-.33-.08c-1.8-.86-3.9-1.6-6.08-2.1l-.21-.05a16.92 16.92 0 0 0-3.82-.43h-.09zm7.77-5.1-22.4 3.82a2.86 2.86 0 0 1 1.92 2.82 2.9 2.9 0 0 1-.14.78l.01-.02a36.82 36.82 0 0 1 7.68-2.5l.25-.05a22.54 22.54 0 0 1 7.97-.32l-.12-.02a8.12 8.12 0 0 1 4.77-4.49l.06-.01zM10.05 5.4s3 1.34 4.16 6.94a11.2 11.2 0 0 1-.53 7.29l.03-.08a9.18 9.18 0 0 1 8.8-2.19l-.07-.01A14.95 14.95 0 0 0 19 9.92l.01.02a12 12 0 0 0-8.95-4.55h-.02zm-2.22-.04a15.68 15.68 0 0 1 2.77 7.85v.05a16.08 16.08 0 0 1-.88 6.68l.04-.12a5.36 5.36 0 0 1 3.7-1.9h.01l.19-.01a15.5 15.5 0 0 0-1.26-8.45l.04.1a7.54 7.54 0 0 0-4.56-4.19l-.05-.01z"/>
</svg>