<svg xmlns="http://www.w3.org/2000/svg" width="800" height="800" preserveAspectRatio="xMidYMid" viewBox="0 0 256 256">
  <path fill="#FF6C37" d="M254.95 144.25c8.96-70.13-40.57-134.24-110.57-143.2-70-8.96-134.37 40.57-143.33 110.57-8.96 70 40.57 134.25 110.57 143.33 70.13 8.96 134.25-40.57 143.33-110.7Z"/>
  <path fill="#FFF" d="m174.2 82.18-54 54.01-15.24-15.23c53.11-53.1 58.36-48.5 69.24-38.78Z"/>
  <path fill="#FF6C37" d="M120.2 137.47c-.4 0-.65-.13-.9-.38l-15.36-15.23a1.24 1.24 0 0 1 0-1.8c54-54 59.64-48.88 71.03-38.64.25.25.38.5.38.9 0 .38-.13.63-.38.89l-54 53.88c-.14.25-.52.38-.78.38Zm-13.44-16.5 13.43 13.43 52.09-52.09c-9.47-8.44-15.87-11-65.52 38.65Z"/>
  <path fill="#FFF" d="m135.68 151.68-14.72-14.72 54-54c14.47 14.58-7.16 38.26-39.28 68.72Z"/>
  <path fill="#FF6C37" d="M135.68 152.96c-.39 0-.64-.13-.9-.39l-14.71-14.72c-.26-.25-.26-.5-.26-.9 0-.38.13-.63.38-.89l54.01-54a1.24 1.24 0 0 1 1.8 0 15.58 15.58 0 0 1 4.98 11.9c-.25 14.2-16.38 32.25-44.28 58.61-.38.26-.77.39-1.02.39Zm-12.93-16c8.2 8.32 11.65 11.64 12.93 12.92 21.5-20.47 42.36-41.46 42.49-55.92a13.63 13.63 0 0 0-3.33-9.22l-52.09 52.22Z"/>
  <path fill="#FFF" d="m105.22 121.35 10.88 10.87c.25.26.25.52 0 .77-.13.13-.13.13-.26.13l-22.52 4.86a2.24 2.24 0 0 1-2.43-1.79 1.9 1.9 0 0 1 .5-1.66l13.06-13.06c.26-.25.64-.38.77-.12Z"/>
  <path fill="#FF6C37" d="M92.93 139.26a3.33 3.33 0 0 1-3.32-3.45c0-.9.38-1.8 1.02-2.43l13.05-13.06c.77-.64 1.8-.64 2.56 0l10.88 10.88c.77.64.77 1.8 0 2.56-.25.25-.51.38-.9.51l-22.52 4.86c-.25 0-.51.13-.77.13Zm11.9-16.5L92.3 135.28c-.25.26-.38.64-.12 1.03.12.38.5.51.9.38l21.1-4.6-9.33-9.35Z"/>
  <path fill="#FFF" d="M202.74 52.24a20.67 20.67 0 0 0-29.3.64 20.67 20.67 0 0 0 .63 29.3A20.68 20.68 0 0 0 199.16 85l-14.6-14.59 18.18-18.17Z"/>
  <path fill="#FF6C37" d="M188.4 89.22a22.01 22.01 0 1 1 15.23-37.88c.26.26.39.51.39.9 0 .38-.13.64-.39.9L186.36 70.4l13.56 13.57c.51.5.51 1.28 0 1.79l-.25.25a21.7 21.7 0 0 1-11.26 3.2Zm0-41.33a19.25 19.25 0 0 0-19.32 19.45c0 10.75 8.7 19.45 19.45 19.32 2.95 0 5.89-.64 8.58-2.04L183.67 71.3a1.16 1.16 0 0 1-.38-.9c0-.38.12-.64.38-.9l17.15-17.14a18.97 18.97 0 0 0-12.41-4.48Z"/>
  <path fill="#FFF" d="m203.12 52.62-.25-.25-18.3 18.04 14.46 14.46c1.4-.9 2.81-1.92 3.96-3.07a20.5 20.5 0 0 0 .13-29.18Z"/>
  <path fill="#FF6C37" d="M199.16 86.28c-.39 0-.64-.13-.9-.38l-14.59-14.6a1.16 1.16 0 0 1-.38-.89c0-.38.12-.64.38-.9l18.17-18.17a1.24 1.24 0 0 1 1.8 0l.38.26a22.13 22.13 0 0 1 .13 31.1 21.03 21.03 0 0 1-4.23 3.32c-.38.13-.64.26-.76.26Zm-12.8-15.87 12.92 12.93a19.49 19.49 0 0 0 3.46-29.18L186.36 70.4Z"/>
  <path fill="#FFF" d="M176.38 84.49a7.88 7.88 0 0 0-11.14 0L117 132.74l8.07 8.06L176.12 96a7.9 7.9 0 0 0 .77-11.13 1.6 1.6 0 0 1-.51-.38Z"/>
  <path fill="#FF6C37" d="M124.93 142.08c-.39 0-.64-.13-.9-.39l-8.06-8.06a1.24 1.24 0 0 1 0-1.8l48.25-48.24a9.11 9.11 0 0 1 12.92 0 9.11 9.11 0 0 1 0 12.93l-.38.38-51.06 44.8c-.13.25-.39.38-.77.38Zm-6.14-9.34 6.27 6.27 50.16-44.03c2.82-2.3 3.07-6.52.77-9.34-2.3-2.82-6.53-3.07-9.34-.77-.13.13-.26.26-.51.39l-47.35 47.48Z"/>
  <path fill="#FFF" d="M80 187.64c-.5.25-.76.77-.63 1.28l2.17 9.21a2.44 2.44 0 0 1-1.66 3.2c-1.02.38-2.17 0-2.81-.77l-14.08-13.95 45.94-45.94 15.87.26 10.75 10.75c-2.56 2.17-18.04 17.14-55.54 35.96Z"/>
  <path fill="#FF6C37" d="M78.98 202.61a3.49 3.49 0 0 1-2.68-1.15L62.35 187.5a1.16 1.16 0 0 1-.39-.9c0-.38.13-.64.39-.9l45.94-45.94c.26-.25.64-.38.9-.38l15.87.26c.38 0 .64.12.9.38l10.74 10.75c.26.26.39.64.39 1.02 0 .39-.13.64-.52.9l-.9.77c-13.56 11.9-31.99 23.8-54.9 35.2l2.18 9.08a4.04 4.04 0 0 1-1.92 4.35c-.77.38-1.4.51-2.05.51Zm-14.07-16 13.18 13.06c.38.64 1.15.9 1.8.5.63-.37.89-1.14.5-1.78l-2.17-9.22a2.33 2.33 0 0 1 1.28-2.68c22.65-11.4 40.95-23.17 54.39-34.81l-9.47-9.47-14.72-.26-44.8 44.66Z"/>
  <path fill="#FFF" d="m52.11 197.62 11-11 16.39 16.37-26.11-1.79a2.04 2.04 0 0 1-1.8-2.3c0-.51.14-1.02.52-1.28Z"/>
  <path fill="#FF6C37" d="m79.5 204.15-26.24-1.8c-1.92-.12-3.2-1.79-3.07-3.7.13-.77.38-1.54 1.02-2.05l11.01-11.01a1.24 1.24 0 0 1 1.8 0l16.37 16.38c.39.38.51.9.26 1.4-.26.52-.64.78-1.15.78ZM63.12 188.4 53 198.5c-.39.26-.39.9 0 1.16.12.13.25.25.5.25l22.66 1.54-13.05-13.05Zm41.33-41.84c-.77 0-1.28-.64-1.28-1.28 0-.39.13-.64.39-.9l12.41-12.41a1.24 1.24 0 0 1 1.8 0l8.05 8.06c.39.38.52.77.39 1.28-.13.38-.51.77-1.03.9l-20.47 4.35h-.26Zm12.42-11.9-8.45 8.44 13.82-2.94-5.37-5.5Z"/>
  <path fill="#FFF" d="M124.8 140.93 110.72 144a1.9 1.9 0 0 1-1.79-3.2l7.8-7.8 8.07 7.93Z"/>
  <path fill="#FF6C37" d="M110.47 145.28c-1.8 0-3.2-1.41-3.2-3.2 0-.9.38-1.67.9-2.3l7.8-7.81a1.24 1.24 0 0 1 1.8 0l8.05 8.06c.39.38.52.77.39 1.28-.13.38-.51.77-1.03.9l-14.07 3.07h-.64Zm6.4-10.63-6.91 6.92c-.26.25-.26.5-.13.76s.38.39.77.39l11.77-2.56-5.5-5.5Zm86.38-69.75c-.26-.76-1.15-1.14-1.92-.89-.77.26-1.15 1.15-.9 1.92 0 .13.13.26.13.39a4.78 4.78 0 0 1-.5 4.86c-.52.64-.4 1.53.12 2.05.64.5 1.53.38 2.05-.26a7.5 7.5 0 0 0 1.02-8.06Z"/>
</svg>