<svg xmlns="http://www.w3.org/2000/svg" width="800" height="800" viewBox="0 0 73 73">
  <g fill="none" fill-rule="evenodd">
    <rect width="71" height="71" x="-1" y="-1" fill="#FFF" fill-rule="nonzero" stroke="#87305C" stroke-width="2" rx="14" transform="translate(2 2)"/>
    <path fill="#C69" d="M36.5 10a26.5 26.5 0 1 1-.01 53.01A26.5 26.5 0 0 1 36.5 10Z"/>
    <path fill="#FFF" fill-rule="nonzero" d="M53.13 21.37c-1.2-4.7-9-6.25-16.4-3.63-4.39 1.56-9.15 4.01-12.57 7.22-4.08 3.8-4.71 7.12-4.46 8.5.94 4.89 7.63 8.07 10.39 10.44v.01c-.82.4-6.75 3.4-8.14 6.48-1.46 3.24.24 5.57 1.36 5.88 3.49.97 7.07-.78 8.98-3.64a9.14 9.14 0 0 0 .9-8.12 10.9 10.9 0 0 1 4.05-.24c4.65.55 5.56 3.45 5.38 4.67a3.03 3.03 0 0 1-1.47 2.08c-.33.2-.42.27-.4.42.04.22.18.2.46.17.38-.07 2.45-1 2.53-3.23.11-2.85-2.62-6.03-7.45-5.95a12.8 12.8 0 0 0-4.14.56 4.1 4.1 0 0 0-.2-.23c-3-3.19-8.51-5.45-8.28-9.72.09-1.56.63-5.67 10.61-10.64 8.18-4.07 14.73-2.94 15.86-.46 1.62 3.55-3.5 10.15-11.99 11.1-3.24.37-4.94-.88-5.36-1.36-.45-.49-.52-.51-.68-.42-.27.16-.1.59 0 .85.26.66 1.29 1.82 3.07 2.41 1.56.52 5.36.8 9.95-.98 5.17-2.01 9.18-7.55 8-12.17ZM31.24 45.36a6.87 6.87 0 0 1-.2 4.35l-.17.4c-.3.63-.72 1.23-1.23 1.77-1.53 1.69-3.69 2.31-4.6 1.79-1-.58-.5-2.95 1.28-4.84A17.86 17.86 0 0 1 31 45.5c.08-.06.16-.1.24-.14Z"/>
  </g>
</svg>