<svg xmlns="http://www.w3.org/2000/svg" xml:space="preserve" width="800" height="800" viewBox="0 0 100 100">
  <path fill="#F2F2F2" fill-rule="evenodd" d="M7.98 17.68h75.91v57.39H7.98z" clip-rule="evenodd"/>
  <path d="M85.25 76.44H6.62V16.33h57.25v2.71H9.34v54.68h73.2V19.04H73.8v-2.71h11.45v60.1zm-14.5-57.4h-3.38v-2.71h3.37v2.71z"/>
  <path fill="#39B6CC" fill-rule="evenodd" d="M7.98 32.03h75.91v43.05H7.98z" clip-rule="evenodd"/>
  <path d="M85.25 76.44H6.62V30.67h78.63v45.77zm-75.9-2.72h73.18V33.39H9.34v40.33z"/>
  <path fill="#FF7C24" fill-rule="evenodd" d="M13.75 22.9h4.16v4.01h-4.16zm7.44-.05h4.16v4.01h-4.16zm7.26 0h4.16v4.01h-4.16z" clip-rule="evenodd"/>
  <path fill="#F2F2F2" fill-rule="evenodd" d="M62.95 37.57a14.96 14.96 0 1 1 0 29.93 14.96 14.96 0 0 1 0-29.93z" clip-rule="evenodd"/>
  <path d="M62.95 68.86c-9 0-16.33-7.32-16.33-16.32S53.94 36.2 62.95 36.2a16.34 16.34 0 0 1 0 32.65zm0-29.93a13.62 13.62 0 1 0 13.6 13.61c0-7.5-6.1-13.61-13.6-13.61z"/>
  <path fill="#B3B3B3" fill-rule="evenodd" d="m76.31 59.27 4.62 4.77-7.15 6.93-4.64-4.8a15.01 15.01 0 0 0 7.17-6.9z" clip-rule="evenodd"/>
  <path d="m73.75 72.89-6.93-7.16 1.75-.8a13.66 13.66 0 0 0 6.53-6.27l.86-1.7 6.9 7.1-9.11 8.83zm-2.38-6.37 2.44 2.52 5.2-5.04-2.42-2.5a16.4 16.4 0 0 1-5.22 5.02z"/>
  <path fill="#FF7C24" fill-rule="evenodd" d="m82.04 81.75-9.39-9.71 9.4-9.1 9.4 9.72z" clip-rule="evenodd"/>
  <path d="M82.02 83.67 70.74 72.01 82.1 61.03l11.28 11.66-11.36 10.98zm-7.44-11.6 7.5 7.76 7.45-7.2-7.5-7.76-7.45 7.2zm-57.3-11.5-1.75-2.08 11.11-9.34 12.05 7.27 9.18-6.34 10.4 4.65 9.85-5.78 1.38 2.35-11.07 6.47-10.28-4.59-9.36 6.47-11.89-7.17z"/>
  <path fill="#FF7C24" fill-rule="evenodd" d="M26.77 47.8a3.02 3.02 0 1 1 0 6.03 3.02 3.02 0 0 1 0-6.03z" clip-rule="evenodd"/>
  <path d="M26.77 55.2a4.38 4.38 0 1 1 .02-8.77 4.38 4.38 0 0 1-.02 8.76zm0-6.04a1.66 1.66 0 1 0 0 3.31 1.66 1.66 0 0 0 0-3.31z"/>
  <path fill="#FF7C24" fill-rule="evenodd" d="M38.74 54.52a3.02 3.02 0 1 1 0 6.04 3.02 3.02 0 0 1 0-6.04z" clip-rule="evenodd"/>
  <path d="M38.74 61.92a4.38 4.38 0 1 1 0-8.77 4.38 4.38 0 0 1 0 8.77zm0-6.04z"/>
  <path fill="#FF7C24" fill-rule="evenodd" d="M58.16 52.65a3.02 3.02 0 1 1 0 6.03 3.02 3.02 0 0 1 0-6.03z" clip-rule="evenodd"/>
  <path d="M58.16 60.04a4.38 4.38 0 1 1 0-8.76 4.38 4.38 0 0 1 0 8.76zm0-6.03a1.66 1.66 0 0 0 0 3.31 1.66 1.66 0 0 0 0-3.31z"/>
  <path fill="#FF7C24" fill-rule="evenodd" d="M68.8 47.11a3.01 3.01 0 1 1 .01 6.03 3.01 3.01 0 0 1 0-6.03z" clip-rule="evenodd"/>
  <path d="M68.8 54.5a4.38 4.38 0 1 1 .02-8.76 4.38 4.38 0 0 1-.01 8.76zm0-6.03a1.66 1.66 0 1 0 .01 3.32 1.66 1.66 0 0 0 0-3.32z"/>
  <path fill="#FF7C24" fill-rule="evenodd" d="M16.4 56.52a3.02 3.02 0 1 1 0 6.03 3.02 3.02 0 0 1 0-6.03z" clip-rule="evenodd"/>
  <path d="M16.4 63.91a4.38 4.38 0 1 1 .02-8.76 4.38 4.38 0 0 1-.02 8.76zm0-6.03a1.66 1.66 0 1 0 0 3.31 1.66 1.66 0 0 0 0-3.31z"/>
</svg>