<svg xmlns="http://www.w3.org/2000/svg" width="800" height="800" preserveAspectRatio="xMidYMid" viewBox="0 -26 256 256">
  <path fill="#1A1918" d="M162.93 40.67a12.35 12.35 0 0 0-17.46 0l-78.6 78.6a24.7 24.7 0 0 1-34.93-34.94l77.08-77.08a24.7 24.7 0 0 0-34.93 0L14.47 66.87a49.41 49.41 0 0 0 69.86 69.87l78.6-78.6a12.36 12.36 0 0 0 0-17.47Zm26.2-26.2a49.4 49.4 0 0 0-69.86 0l-78.6 78.6a12.36 12.36 0 0 0 17.46 17.46l78.6-78.59a24.69 24.69 0 0 1 34.93 0 12.36 12.36 0 0 0 17.47-17.47Zm26.2 78.6a12.36 12.36 0 0 0-17.47 0l-78.6 78.6a24.7 24.7 0 0 1-34.93 0 12.35 12.35 0 0 0-17.46 17.46 49.4 49.4 0 0 0 69.86 0l78.6-78.6a12.36 12.36 0 0 0 0-17.46Zm26.2-26.2a49.4 49.4 0 0 0-69.86 0l-78.6 78.6a12.35 12.35 0 1 0 17.46 17.46l78.6-78.6a24.7 24.7 0 1 1 34.93 34.94l-77.08 77.08a24.7 24.7 0 0 0 34.93 0l59.62-59.61a49.4 49.4 0 0 0 0-69.87Z"/>
</svg>