<svg xmlns="http://www.w3.org/2000/svg" width="800" height="800" preserveAspectRatio="xMidYMid" viewBox="0 0 256 256">
  <path fill="#FFF" d="M127.06 256C58.86 255.53-.46 198.92 0 127 .44 57.8 57.95-.47 129.11 0 198.27.46 256.61 57.87 256 128.2c.57 69.68-58.07 128.29-128.94 127.8Zm0 0C58.86 255.53-.46 198.92 0 127 .44 57.8 57.95-.47 129.11 0 198.27.46 256.61 57.87 256 128.2c.57 69.68-58.07 128.29-128.94 127.8Z"/>
  <path fill="#49A32B" d="M127.18 239C68.03 238.59 16.6 189.5 17 127.13 17.4 67.12 67.26 16.6 128.96 17c59.97.4 110.57 50.18 110.04 111.17.5 60.43-50.35 111.25-111.82 110.83Zm0 0C68.03 238.59 16.6 189.5 17 127.13 17.4 67.12 67.26 16.6 128.96 17c59.97.4 110.57 50.18 110.04 111.17.5 60.43-50.35 111.25-111.82 110.83Z"/>
  <path fill="#FFF" d="M169.33 127.96c-.29 5.29-4.9 9.68-9.46 8.91h-.07a9.13 9.13 0 0 1-9.15-9.12 9.28 9.28 0 0 1 9.43-8.96c5.05.02 9.52 4.29 9.25 9.17ZM88.2 179.22c1.9.06 3.8.02 6 .02v13.78c-13.63 2.3-24.87-1.56-27.62-13.09a76.5 76.5 0 0 1-1.74-12.89c-.29-4.59.22-9.23-.13-13.81-.97-12.62-2.6-16.92-14.71-17.52v-15.7c.87-.2 1.75-.35 2.63-.45 6.64-.32 9.43-2.36 10.92-8.9a74.57 74.57 0 0 0 1.2-11.12c.52-7.21.33-14.55 1.53-21.65 1.74-10.27 8.12-15.25 18.64-15.81 3-.16 6-.03 9.4-.03v14.1c-1.4.1-2.68.3-3.95.26-8.58-.26-9.02 2.66-9.65 9.76-.39 4.46.15 8.99-.15 13.45-.32 4.45-.92 8.88-1.78 13.25-1.24 6.34-5.14 11.05-10.54 15.05 10.48 6.83 11.68 17.43 12.36 28.2.36 5.78.2 11.6.78 17.36.46 4.46 2.2 5.6 6.81 5.74Zm8.84-60.43h.16a9.08 9.08 0 0 1 8.91 9.72 8.88 8.88 0 0 1-9.38 8.36l-.59-.01a9.05 9.05 0 0 1 .9-18.07Zm31.23 0c5.49-.04 9.13 3.51 9.16 8.93.03 5.56-3.43 9.13-8.87 9.15-5.54.02-9.19-3.48-9.22-8.87a8.67 8.67 0 0 1 8.93-9.21Zm65.4-6.87c1.46 5.45 4.3 7.36 10.03 7.63.94.04 1.88.2 3.17.34v15.7c-.7.22-1.41.4-2.14.5-7.68.48-11.19 3.64-11.96 11.34-.5 4.92-.46 9.9-.8 14.83a125.8 125.8 0 0 1-1.47 16.18c-1.96 9.7-8.02 14.54-18.03 15.13-3.22.2-6.47.03-9.94.03v-14.02c1.87-.12 3.52-.28 5.17-.32 5.98-.14 8.1-2.07 8.39-8 .32-6.53.47-13.07.76-19.6.42-9.43 3-17.85 11.8-23.74-5.04-3.58-9.07-7.93-10.12-13.78-1.27-7.1-1.67-14.35-2.35-21.55-.34-3.6-.32-7.23-.68-10.82-.37-3.88-3.04-5.22-6.57-5.31-2.03-.05-4.06-.01-6.65-.01v-13.7c16.51-2.74 27.92 2.76 28.98 18.55.44 6.63.38 13.3.8 19.93.19 3.61.73 7.2 1.61 10.7Z"/>
</svg>