<svg xmlns="http://www.w3.org/2000/svg" width="800" height="800" preserveAspectRatio="xMidYMid" viewBox="0 0 256 256">
  <defs>
    <linearGradient id="a" x1="50%" x2="50%" y1="0%" y2="100%">
      <stop offset="0%" stop-color="#FFF"/>
      <stop offset="100%" stop-color="#FFF" stop-opacity="0"/>
    </linearGradient>
  </defs>
  <path fill="#52218A" d="M36.99 200.4a10.67 10.67 0 0 1-11.04 1.74l-19.39-8.13A10.67 10.67 0 0 1 0 184.22V70.46c.02-4.28 2.6-8.14 6.56-9.79l19.39-8a10.67 10.67 0 0 1 11.04 1.74l4.34 3.6A5.9 5.9 0 0 0 32 62.8v129.06a5.9 5.9 0 0 0 9.33 4.8L37 200.41Z"/>
  <path fill="#6C33AF" d="M6.56 194A10.67 10.67 0 0 1 0 184.23v-.88a6.16 6.16 0 0 0 10.67 4.13L176 4.67a16 16 0 0 1 18.19-3.09l52.74 25.39A16 16 0 0 1 256 41.39v.62a10.1 10.1 0 0 0-16.5-7.82L41.32 196.67 37 200.41a10.67 10.67 0 0 1-11.04 1.73l-19.39-8.13Z"/>
  <path fill="#854CC7" d="M6.56 60.67A10.67 10.67 0 0 0 0 70.46v.88a6.16 6.16 0 0 1 10.67-4.13L176 250a16 16 0 0 0 18.19 3.09l52.74-25.39a16 16 0 0 0 9.07-14.4v-.62a10.1 10.1 0 0 1-16.5 7.82L41.32 58 37 54.27a10.67 10.67 0 0 0-11.04-1.6l-19.39 8Z"/>
  <path fill="#B179F1" d="M194.19 253.1A16 16 0 0 1 176 250a9.39 9.39 0 0 0 16-6.63v-232a9.39 9.39 0 0 0-16-6.7 16 16 0 0 1 18.19-3.09l52.74 25.36A16 16 0 0 1 256 41.37V213.3a16 16 0 0 1-9.07 14.43L194.2 253.1Z"/>
  <path fill="url(#a)" fill-opacity=".25" d="M183.7 254.27a16 16 0 0 0 10.49-1.17l52.74-25.36a16 16 0 0 0 9.07-14.43V41.37a16 16 0 0 0-9.07-14.43L194.2 1.58a16 16 0 0 0-11.95-.77A16 16 0 0 0 176 4.67L90.99 98.7 41.33 58 37 54.28a10.67 10.67 0 0 0-11.04-1.73l-19.4 8.12c-3.7 1.53-6.23 5-6.56 8.99v115.36a10.67 10.67 0 0 0 6.56 8.99l19.39 8a10.67 10.67 0 0 0 11.04-1.73l4.34-3.6L91 155.97l85 94.04a16 16 0 0 0 7.7 4.26ZM192 73.15l-66.1 54.19 66.1 54.19V73.15ZM32 90.73l33.1 36.61L32 163.95V90.73Z"/>
</svg>