<svg xmlns="http://www.w3.org/2000/svg" width="800" height="800" fill="none" viewBox="0 0 32 32">
  <path fill="url(#a)" d="M21 3.12c0-.88-.98-.88-1.42-.77a1.54 1.54 0 0 1 1.59-.22l5.9 2.9c.57.27.93.85.93 1.48v19.07c0 .64-.37 1.22-.94 1.5l-5.57 2.63c-.38.16-1.21.57-1.91 0 .87.16 1.35-.46 1.42-.88V3.12Z"/>
  <path fill="url(#b)" d="M19.65 2.33c.47-.09 1.35-.05 1.35.79v6.56L3.07 23.25a.76.76 0 0 1-1.02-.1l-1.85-2a.77.77 0 0 1 .05-1.09L19.58 2.35l.07-.02Z"/>
  <path fill="url(#c)" d="M21 22.37 3.07 8.81a.76.76 0 0 0-1.02.09l-1.85 2c-.28.31-.26.8.05 1.09l19.33 17.72c.88.16 1.35-.46 1.42-.88v-6.46Z"/>
  <defs>
    <linearGradient id="a" x1="23.79" x2="23.79" y1="2" y2="30" gradientUnits="userSpaceOnUse">
      <stop stop-color="#32B5F1"/>
      <stop offset="1" stop-color="#2B9FED"/>
    </linearGradient>
    <linearGradient id="b" x1="21" x2="1.02" y1="5.53" y2="22.31" gradientUnits="userSpaceOnUse">
      <stop stop-color="#0F6FB3"/>
      <stop offset=".27" stop-color="#1279B7"/>
      <stop offset=".42" stop-color="#1176B5"/>
      <stop offset=".62" stop-color="#0E69AC"/>
      <stop offset=".86" stop-color="#0F70AF"/>
      <stop offset="1" stop-color="#0F6DAD"/>
    </linearGradient>
    <linearGradient id="c" x1="1.16" x2="21.08" y1="9.98" y2="26.48" gradientUnits="userSpaceOnUse">
      <stop stop-color="#1791D2"/>
      <stop offset="1" stop-color="#1173C5"/>
    </linearGradient>
  </defs>
</svg>